<svg id="visual" viewBox="0 0 900 600" width="900" height="600" xmlns="http://www.w3.org/2000/svg" xmlns:xlink="http://www.w3.org/1999/xlink" version="1.1"><rect x="0" y="0" width="900" height="600" fill="none"></rect><path d="M0 368L16.7 379.3C33.3 390.7 66.7 413.3 100 425.3C133.3 437.3 166.7 438.7 200 432.3C233.3 426 266.7 412 300 399C333.3 386 366.7 374 400 375.5C433.3 377 466.7 392 500 403.3C533.3 414.7 566.7 422.3 600 413.2C633.3 404 666.7 378 700 377.2C733.3 376.3 766.7 400.7 800 402.5C833.3 404.3 866.7 383.7 883.3 373.3L900 363L900 601L883.3 601C866.7 601 833.3 601 800 601C766.7 601 733.3 601 700 601C666.7 601 633.3 601 600 601C566.7 601 533.3 601 500 601C466.7 601 433.3 601 400 601C366.7 601 333.3 601 300 601C266.7 601 233.3 601 200 601C166.7 601 133.3 601 100 601C66.7 601 33.3 601 16.7 601L0 601Z" fill="#715df2"></path><path d="M0 446L16.7 437.5C33.3 429 66.7 412 100 413.7C133.3 415.3 166.7 435.7 200 444.3C233.3 453 266.7 450 300 442.8C333.3 435.7 366.7 424.3 400 426.2C433.3 428 466.7 443 500 450.5C533.3 458 566.7 458 600 448.2C633.3 438.3 666.7 418.7 700 412.3C733.3 406 766.7 413 800 419.7C833.3 426.3 866.7 432.7 883.3 435.8L900 439L900 601L883.3 601C866.7 601 833.3 601 800 601C766.7 601 733.3 601 700 601C666.7 601 633.3 601 600 601C566.7 601 533.3 601 500 601C466.7 601 433.3 601 400 601C366.7 601 333.3 601 300 601C266.7 601 233.3 601 200 601C166.7 601 133.3 601 100 601C66.7 601 33.3 601 16.7 601L0 601Z" fill="#5576fb"></path><path d="M0 496L16.7 495.2C33.3 494.3 66.7 492.7 100 495C133.3 497.3 166.7 503.7 200 494.7C233.3 485.7 266.7 461.3 300 455C333.3 448.7 366.7 460.3 400 470.2C433.3 480 466.7 488 500 492C533.3 496 566.7 496 600 489C633.3 482 666.7 468 700 466C733.3 464 766.7 474 800 482.3C833.3 490.7 866.7 497.3 883.3 500.7L900 504L900 601L883.3 601C866.7 601 833.3 601 800 601C766.7 601 733.3 601 700 601C666.7 601 633.3 601 600 601C566.7 601 533.3 601 500 601C466.7 601 433.3 601 400 601C366.7 601 333.3 601 300 601C266.7 601 233.3 601 200 601C166.7 601 133.3 601 100 601C66.7 601 33.3 601 16.7 601L0 601Z" fill="#408bfe"></path><path d="M0 517L16.7 512.2C33.3 507.3 66.7 497.7 100 497C133.3 496.3 166.7 504.7 200 512.3C233.3 520 266.7 527 300 521.7C333.3 516.3 366.7 498.7 400 496C433.3 493.3 466.7 505.7 500 513.3C533.3 521 566.7 524 600 525.8C633.3 527.7 666.7 528.3 700 530.3C733.3 532.3 766.7 535.7 800 530C833.3 524.3 866.7 509.7 883.3 502.3L900 495L900 601L883.3 601C866.7 601 833.3 601 800 601C766.7 601 733.3 601 700 601C666.7 601 633.3 601 600 601C566.7 601 533.3 601 500 601C466.7 601 433.3 601 400 601C366.7 601 333.3 601 300 601C266.7 601 233.3 601 200 601C166.7 601 133.3 601 100 601C66.7 601 33.3 601 16.7 601L0 601Z" fill="#3d9dfc"></path><path d="M0 548L16.7 544.7C33.3 541.3 66.7 534.7 100 531.5C133.3 528.3 166.7 528.7 200 531.7C233.3 534.7 266.7 540.3 300 541.8C333.3 543.3 366.7 540.7 400 542.2C433.3 543.7 466.7 549.3 500 548.5C533.3 547.7 566.7 540.3 600 535.5C633.3 530.7 666.7 528.3 700 534C733.3 539.7 766.7 553.3 800 557.3C833.3 561.3 866.7 555.7 883.3 552.8L900 550L900 601L883.3 601C866.7 601 833.3 601 800 601C766.7 601 733.3 601 700 601C666.7 601 633.3 601 600 601C566.7 601 533.3 601 500 601C466.7 601 433.3 601 400 601C366.7 601 333.3 601 300 601C266.7 601 233.3 601 200 601C166.7 601 133.3 601 100 601C66.7 601 33.3 601 16.7 601L0 601Z" fill="#4facf7"></path></svg>