<svg id="visual" viewBox="0 0 900 600" width="900" height="600" xmlns="http://www.w3.org/2000/svg" xmlns:xlink="http://www.w3.org/1999/xlink" version="1.1"><path d="M0 460L16.7 466.8C33.3 473.7 66.7 487.3 100 494.5C133.3 501.7 166.7 502.3 200 498.7C233.3 495 266.7 487 300 479.3C333.3 471.7 366.7 464.3 400 465.2C433.3 466 466.7 475 500 481.8C533.3 488.7 566.7 493.3 600 487.8C633.3 482.3 666.7 466.7 700 466.2C733.3 465.7 766.7 480.3 800 481.3C833.3 482.3 866.7 469.7 883.3 463.3L900 457L900 601L883.3 601C866.7 601 833.3 601 800 601C766.7 601 733.3 601 700 601C666.7 601 633.3 601 600 601C566.7 601 533.3 601 500 601C466.7 601 433.3 601 400 601C366.7 601 333.3 601 300 601C266.7 601 233.3 601 200 601C166.7 601 133.3 601 100 601C66.7 601 33.3 601 16.7 601L0 601Z" fill="#715df2"></path><path d="M0 507L16.7 502C33.3 497 66.7 487 100 488C133.3 489 166.7 501 200 506.2C233.3 511.3 266.7 509.7 300 505.3C333.3 501 366.7 494 400 495.2C433.3 496.3 466.7 505.7 500 510.3C533.3 515 566.7 515 600 509C633.3 503 666.7 491 700 487C733.3 483 766.7 487 800 491C833.3 495 866.7 499 883.3 501L900 503L900 601L883.3 601C866.7 601 833.3 601 800 601C766.7 601 733.3 601 700 601C666.7 601 633.3 601 600 601C566.7 601 533.3 601 500 601C466.7 601 433.3 601 400 601C366.7 601 333.3 601 300 601C266.7 601 233.3 601 200 601C166.7 601 133.3 601 100 601C66.7 601 33.3 601 16.7 601L0 601Z" fill="#5576fb"></path><path d="M0 537L16.7 536.5C33.3 536 66.7 535 100 536.3C133.3 537.7 166.7 541.3 200 536C233.3 530.7 266.7 516.3 300 512.7C333.3 509 366.7 516 400 521.8C433.3 527.7 466.7 532.3 500 534.7C533.3 537 566.7 537 600 532.8C633.3 528.7 666.7 520.3 700 519.2C733.3 518 766.7 524 800 529C833.3 534 866.7 538 883.3 540L900 542L900 601L883.3 601C866.7 601 833.3 601 800 601C766.7 601 733.3 601 700 601C666.7 601 633.3 601 600 601C566.7 601 533.3 601 500 601C466.7 601 433.3 601 400 601C366.7 601 333.3 601 300 601C266.7 601 233.3 601 200 601C166.7 601 133.3 601 100 601C66.7 601 33.3 601 16.7 601L0 601Z" fill="#408bfe"></path><path d="M0 550L16.7 547C33.3 544 66.7 538 100 537.7C133.3 537.3 166.7 542.7 200 547.3C233.3 552 266.7 556 300 552.7C333.3 549.3 366.7 538.7 400 537.2C433.3 535.7 466.7 543.3 500 548C533.3 552.7 566.7 554.3 600 555.3C633.3 556.3 666.7 556.7 700 557.8C733.3 559 766.7 561 800 557.7C833.3 554.3 866.7 545.7 883.3 541.3L900 537L900 601L883.3 601C866.7 601 833.3 601 800 601C766.7 601 733.3 601 700 601C666.7 601 633.3 601 600 601C566.7 601 533.3 601 500 601C466.7 601 433.3 601 400 601C366.7 601 333.3 601 300 601C266.7 601 233.3 601 200 601C166.7 601 133.3 601 100 601C66.7 601 33.3 601 16.7 601L0 601Z" fill="#3d9dfc"></path><path d="M0 568L16.7 566C33.3 564 66.7 560 100 558.2C133.3 556.3 166.7 556.7 200 558.5C233.3 560.3 266.7 563.7 300 564.7C333.3 565.7 366.7 564.3 400 565.2C433.3 566 466.7 569 500 568.3C533.3 567.7 566.7 563.3 600 560.5C633.3 557.7 666.7 556.3 700 559.8C733.3 563.3 766.7 571.7 800 574.2C833.3 576.7 866.7 573.3 883.3 571.7L900 570L900 601L883.3 601C866.7 601 833.3 601 800 601C766.7 601 733.3 601 700 601C666.7 601 633.3 601 600 601C566.7 601 533.3 601 500 601C466.7 601 433.3 601 400 601C366.7 601 333.3 601 300 601C266.7 601 233.3 601 200 601C166.7 601 133.3 601 100 601C66.7 601 33.3 601 16.7 601L0 601Z" fill="#4facf7"></path></svg>