<svg id="visual" viewBox="0 0 900 600" width="900" height="600" xmlns="http://www.w3.org/2000/svg" xmlns:xlink="http://www.w3.org/1999/xlink" version="1.1"><path d="M0 490L129 473L257 489L386 481L514 497L643 475L771 475L900 479L900 601L771 601L643 601L514 601L386 601L257 601L129 601L0 601Z" fill="#ce3434"></path><path d="M0 516L129 497L257 496L386 484L514 510L643 493L771 507L900 513L900 601L771 601L643 601L514 601L386 601L257 601L129 601L0 601Z" fill="#cd095b"></path><path d="M0 531L129 523L257 529L386 531L514 521L643 524L771 516L900 513L900 601L771 601L643 601L514 601L386 601L257 601L129 601L0 601Z" fill="#ba0a83"></path><path d="M0 542L129 546L257 560L386 541L514 560L643 537L771 550L900 552L900 601L771 601L643 601L514 601L386 601L257 601L129 601L0 601Z" fill="#8e30a8"></path><path d="M0 565L129 562L257 573L386 563L514 560L643 560L771 578L900 576L900 601L771 601L643 601L514 601L386 601L257 601L129 601L0 601Z" fill="#3149c2"></path></svg>