<svg id="visual" viewBox="0 0 900 600" width="900" height="600" xmlns="http://www.w3.org/2000/svg" xmlns:xlink="http://www.w3.org/1999/xlink" version="1.1"><path d="M0 121L82 67L164 109L245 133L327 109L409 61L491 109L573 103L655 49L736 103L818 67L900 49L900 0L818 0L736 0L655 0L573 0L491 0L409 0L327 0L245 0L164 0L82 0L0 0Z" fill="#00cc8e"></path><path d="M0 343L82 337L164 343L245 217L327 253L409 247L491 235L573 235L655 151L736 277L818 205L900 175L900 47L818 65L736 101L655 47L573 101L491 107L409 59L327 107L245 131L164 107L82 65L0 119Z" fill="#00b98a"></path><path d="M0 415L82 385L164 421L245 265L327 355L409 343L491 271L573 307L655 223L736 355L818 301L900 259L900 173L818 203L736 275L655 149L573 233L491 233L409 245L327 251L245 215L164 341L82 335L0 341Z" fill="#00a784"></path><path d="M0 553L82 523L164 547L245 511L327 493L409 451L491 499L573 499L655 439L736 481L818 457L900 463L900 257L818 299L736 353L655 221L573 305L491 269L409 341L327 353L245 263L164 419L82 383L0 413Z" fill="#00957c"></path><path d="M0 601L82 601L164 601L245 601L327 601L409 601L491 601L573 601L655 601L736 601L818 601L900 601L900 461L818 455L736 479L655 437L573 497L491 497L409 449L327 491L245 509L164 545L82 521L0 551Z" fill="#038373"></path></svg>