<svg id="visual" viewBox="0 0 540 960" width="540" height="960" xmlns="http://www.w3.org/2000/svg" xmlns:xlink="http://www.w3.org/1999/xlink" version="1.1"><path d="M36 0L41 137L43 274L35 411L42 549L39 686L39 823L31 960L0 960L0 823L0 686L0 549L0 411L0 274L0 137L0 0Z" fill="#ce3434"></path><path d="M35 0L34 137L30 274L36 411L31 549L36 686L34 823L34 960L0 960L0 823L0 686L0 549L0 411L0 274L0 137L0 0Z" fill="#cd095b"></path><path d="M21 0L25 137L27 274L20 411L25 549L23 686L29 823L21 960L0 960L0 823L0 686L0 549L0 411L0 274L0 137L0 0Z" fill="#ba0a83"></path><path d="M16 0L15 137L13 274L21 411L20 549L17 686L16 823L13 960L0 960L0 823L0 686L0 549L0 411L0 274L0 137L0 0Z" fill="#8e30a8"></path><path d="M7 0L7 137L11 274L12 411L7 549L10 686L11 823L10 960L0 960L0 823L0 686L0 549L0 411L0 274L0 137L0 0Z" fill="#3149c2"></path></svg>