<svg id="visual" viewBox="0 0 540 960" width="540" height="960" xmlns="http://www.w3.org/2000/svg" xmlns:xlink="http://www.w3.org/1999/xlink" version="1.1"><path d="M506 960L501 823L499 686L507 549L500 411L503 274L503 137L511 0L540 0L540 137L540 274L540 411L540 549L540 686L540 823L540 960Z" fill="#ce3434"></path><path d="M507 960L508 823L512 686L506 549L511 411L506 274L508 137L508 0L540 0L540 137L540 274L540 411L540 549L540 686L540 823L540 960Z" fill="#cd095b"></path><path d="M521 960L517 823L515 686L522 549L517 411L519 274L513 137L521 0L540 0L540 137L540 274L540 411L540 549L540 686L540 823L540 960Z" fill="#ba0a83"></path><path d="M526 960L527 823L529 686L521 549L522 411L525 274L526 137L529 0L540 0L540 137L540 274L540 411L540 549L540 686L540 823L540 960Z" fill="#8e30a8"></path><path d="M535 960L535 823L531 686L530 549L535 411L532 274L531 137L532 0L540 0L540 137L540 274L540 411L540 549L540 686L540 823L540 960Z" fill="#3149c2"></path></svg>